<?xml version="1.0" encoding="UTF-8"?>
<svg id="Main_Logo" xmlns="http://www.w3.org/2000/svg" version="1.1" viewBox="0 0 195.1 99.5">
  <!-- Generator: Adobe Illustrator 29.1.0, SVG Export Plug-In . SVG Version: 2.1.0 Build 142)  -->
  <defs>
    <style>
      .st0 {
        font-family: Gilroy-Bold, Gilroy;
        font-size: 11.5px;
        font-weight: 700;
      }

      .st0, .st1 {
        fill: #f59e19;
      }

      .st1 {
        fill-rule: evenodd;
      }

      .st2 {
        fill: #4daf50;
        font-family: Gilroy-Heavy, Gilroy;
        font-size: 23px;
        font-weight: 800;
      }
    </style>
  </defs>
  <text id="Replace_Slogan" class="st0" transform="translate(59.2 96.5)"><tspan x="0" y="0">placas solares</tspan></text>
  <text id="Replace_Brand_Name" class="st2" transform="translate(-.6 80.5)"><tspan x="0" y="0">SOLEA MALLORCA</tspan></text>
  <g id="Symbol3" data-name="Symbol">
    <path class="st1" d="M111.3,53.4c3.2-3.6,5.1-8.3,5.1-13.5,0-11.3-9.2-20.5-20.5-20.5s-20,8.8-20.4,19.7h0c0,.1,0,.2,0,.3,0,.1,0,.2,0,.4h0c0,3.3,1,6.2,2.7,8.2,1.6,1.9,3.7,3.1,6,3.1s4.4-1.2,6-3.1c1.6-2,2.7-4.8,2.7-7.8-2-1-3.3-3-3.3-5.4v-4.8c0-.3.3-.6.6-.6h2v-3.5c0-.6.5-1.1,1.1-1.1h0c.6,0,1.1.5,1.1,1.1v3.5h2.7v-3.5c0-.6.5-1.1,1.1-1.1h0c.6,0,1.1.5,1.1,1.1v3.5h2c.3,0,.6.3.6.6v4.8c0,2.4-1.4,4.4-3.3,5.4,0,4.4-1.6,8.3-4,11.2-2.6,3.1-6.2,5.1-10.2,5.1s-7.6-1.9-10.2-5.1c-2.4-3-4-7.1-4-11.6,0-6.7,2.7-12.8,7.1-17.3,4.4-4.4,10.5-7.1,17.3-7.1s12.8,2.7,17.3,7.1c4.4,4.4,7.1,10.5,7.1,17.3s-.5,5.8-1.5,8.4h0c-.7,1.8-1.5,3.5-2.6,5.1h-3.5Z"/>
    <path class="st1" d="M48.8,56.7c-.7,0-1.3-.4-1.4-1.1,0-.7.4-1.3,1.1-1.4,3.2-.3,6.4-.7,9.5-.9,3.1-.3,6.3-.5,9.5-.7.7,0,1.3.5,1.4,1.2,0,.7-.5,1.3-1.2,1.4-3.1.2-6.3.4-9.5.7-3.2.3-6.4.6-9.4.9h0ZM100.8,54.2c-.7,0-1.3-.6-1.3-1.3,0-.7.6-1.3,1.3-1.3,7.1,0,14.1.3,21,.8,7.1.4,14.1,1,21,1.8.7,0,1.2.7,1.1,1.4,0,.7-.7,1.2-1.4,1.1-6.9-.7-13.9-1.3-20.9-1.8-6.9-.4-13.9-.7-20.9-.8Z"/>
    <path class="st1" d="M65.5,25.4c.9.6,1.2,1.7.6,2.6-.6.9-1.7,1.2-2.6.6l-2.1-1.3c-.9-.6-1.2-1.7-.6-2.6.6-.9,1.7-1.2,2.6-.6l2.1,1.3h0ZM123.2,26.8c-.9.6-2.1.3-2.6-.6-.6-.9-.3-2.1.6-2.6l1.5-.9c.9-.6,2.1-.3,2.6.6.6.9.3,2.1-.6,2.6l-1.5.9h0ZM114.1,16.7c-.5.9-1.7,1.2-2.6.7-.9-.5-1.2-1.7-.7-2.6l3.1-5.3c.5-.9,1.7-1.2,2.6-.7.9.5,1.2,1.7.7,2.6l-3.1,5.3h0ZM100.8,11.2c-.1,1-1.1,1.8-2.2,1.6-1-.1-1.8-1.1-1.6-2.2l1.2-9c.1-1,1.1-1.8,2.2-1.6,1,.1,1.8,1.1,1.6,2.2l-1.2,9h0ZM87.9,11c.3,1-.3,2.1-1.3,2.4-1,.3-2.1-.3-2.4-1.3l-1-3.5c-.3-1,.3-2.1,1.3-2.4,1-.3,2.1.3,2.4,1.3l1,3.5h0ZM75.1,15.8c.6.8.5,2-.3,2.7-.8.6-2,.5-2.7-.3l-4.6-5.9c-.6-.8-.5-2,.3-2.7.8-.6,2-.5,2.7.3l4.6,5.9Z"/>
  </g>
</svg>